<?xml version="1.0" encoding="utf-8"?>
<!-- Generator: Adobe Illustrator 22.0.0, SVG Export Plug-In . SVG Version: 6.00 Build 0)  -->
<svg version="1.1" id="Layer_1" xmlns="http://www.w3.org/2000/svg" xmlns:xlink="http://www.w3.org/1999/xlink" x="0px" y="0px"
	 viewBox="0 0 400 150" style="enable-background:new 0 0 400 150;" xml:space="preserve">
<style type="text/css">
	.st0{fill:#999999;}
</style>
<g>
	<g>
		<path class="st0" d="M23.8,21.1c3.4,10.2,4.4,22.2,13.6,29.2c3,2.3,6.7-1.5,5.9-4.6C40.9,35.4,31,28.8,25,20.6
			C24.6,20.1,23.5,20.4,23.8,21.1L23.8,21.1z"/>
	</g>
</g>
<g>
	<g>
		<path class="st0" d="M33.2,14.1c1.2,1.7,2.2,1.7,4.3,1.6c3.8-0.1,7.7-0.7,11.5-1.1c7.5-0.9,14.6-3.1,21.9-4.4
			c1.6-0.3,4.2-1.1,5.4,0.6c1,1.3-0.7,4.2-1.1,5.3c-1.6,3.4-3.6,6.7-5.5,10c-1.7,3-3.5,6-5.4,9c-2.2,3.4-4.3,5.6-4.5,9.7
			c-0.1,3.4,3.6,5,6.3,3.6c4.4-2.1,6.4-7.5,8.8-11.6c2.8-4.6,5.4-9.3,7.9-14.1c3.3-6.4,5.9-16.9-4-18.8c-3.4-0.6-7.3,0-10.7,0.4
			c-5,0.6-10.1,1.3-15.2,2.3C51.2,6.9,30.8,10.8,33.2,14.1L33.2,14.1z"/>
	</g>
</g>
<g>
	<g>
		<path class="st0" d="M44.1,56c7,0,16.8,2.9,21.7-3.7c1.3-1.7,0.3-4.5-1.4-5.5c-7.5-4.3-15.5,3.9-20.6,8.4
			C43.5,55.5,43.7,56,44.1,56L44.1,56z"/>
	</g>
</g>
<g>
	<g>
		<path class="st0" d="M10.6,47.5c-0.3,1.8,0.1,2.7,0.6,4.4c0.7,2.3,0.8,4.7,1,7.1c0.4,5,0.7,10.6,2.5,15.3c1.6,4.3,4.9,7.1,9.5,7.8
			c5.2,0.8,9.9-2.5,14.2-4.9c5-2.8,9.8-5.9,15.2-7.8c5.2-1.9,10.5-3.5,15.7-5.6c5.2-2,10.5-3.9,15.9-5.3c5.7-1.6,11-3.9,16.8-5
			c-2.7-2-5.4-4.1-8.1-6.1c0,0.5,0,1,0.1,1.5c0.5-1.2,1-2.4,1.5-3.6c-4.7,5.4-9.2,11-13.8,16.4c-4.5,5.3-7.8,11.1-7.5,18.2
			c0.1,2.9,2.9,4.2,5.4,3.1c6.2-2.8,10-8.1,13.2-14c3.3-6.2,7-11.7,10.9-17.5c-1,0.8-2.1,1.6-3.1,2.4c0.5-0.1,1-0.2,1.5-0.3
			c7-1.5,5.5-12.8-1.7-12.5C95.1,41.3,89.5,41,84.3,42c-4.8,0.9-9.7,2.7-14.3,4.5c-5.1,2-10,4.1-14.6,7c-4.6,2.8-8.8,6.1-13.4,8.8
			c-4.4,2.5-8.6,5.2-12.9,7.9c-1.1,0.7-2.8,2.2-4,2.1c-1.5-0.1-0.4,0.3-1.4-0.9c-1.3-1.6-1.5-4.9-1.9-6.8c-0.9-4.5-0.9-21-9.2-18.7
			C11.5,46,10.7,46.7,10.6,47.5L10.6,47.5z"/>
	</g>
</g>
<g>
	<g>
		<path class="st0" d="M23.1,104.7c3.4,1.7,5.4,1.1,8.8-0.4c4.1-1.8,8.3-3.1,12.5-4.6c7.7-2.8,15.2-5.9,22.9-8.5
			c7.8-2.6,15.5-5.1,23.4-7.3c7.3-2,17.1-2.3,21.8-9c1.5-2.1,0.4-5.5-1.7-6.7c-7.1-4-16.5,0.6-23.6,2.8c-8.1,2.5-16.2,5.2-24,8.4
			c-7.7,3.2-15.6,6.3-22.9,10.4c-3.7,2.1-7.2,4.4-10.9,6.5c-3.6,2.1-5.9,3.3-6.5,7.6C22.8,104.3,22.9,104.6,23.1,104.7L23.1,104.7z"
			/>
	</g>
</g>
<g>
	<g>
		<path class="st0" d="M70.6,57.6c-3.1,1.9-5,4.9-7.3,7.7c-2.5,3.1-5.2,6-7.5,9.3C51,81.2,48.1,88.8,44.2,96
			c-7.9,14.5-19.1,27.6-31.6,38.3c-2.1,1.8-3,5.5-2.1,8.1c0.1,0.3,0.2,0.7,0.3,1c1,3.1,3.4,4.7,6.6,5c0.4,0,0.8,0.1,1.1,0.1
			c2.7,0.3,5.9-1.8,7.2-4.1c7.9-14.7,16.7-29.2,26.5-42.7c4.9-6.8,10.6-13.1,13.9-20.8c1.7-3.8,2.8-7.7,3.9-11.6
			c1-3.5,2.4-7,2.1-10.7C72.1,57.7,71.3,57.1,70.6,57.6L70.6,57.6z"/>
	</g>
</g>
<g>
	<g>
		<path class="st0" d="M55.6,90.2c-0.3,3.8,2.2,8.2,3.8,11.5c2.1,4.2,4.7,8,8,11.3c6.8,6.9,15.7,12.4,24,17.2
			c8.3,4.9,17,9,25.9,12.7c8.4,3.5,21,9.9,29.5,3.5c2.8-2.1,5.3-5.8,3.9-9.6c-3.9-10.3-14.8-12.1-23.9-15.7
			c-7.8-3.1-15.4-6.9-22.7-11.1c-7.7-4.4-14.8-9.7-22.4-14.4c-3.9-2.4-8.2-4.2-12.5-5.7c-3.3-1.2-7.3-3.1-10.8-2.8
			C56.9,87.4,55.7,88.5,55.6,90.2L55.6,90.2z"/>
	</g>
</g>
<g>
	<g>
		<path class="st0" d="M167.6,53.4c4.2-0.2,7.2-0.3,11.2-1.6s8-2.7,12-3.8c5.8-1.6,17.3-2.6,20-8.8c0.7-1.7,0.4-3.3-1.1-4.4
			c-5.8-3.9-15.7,1.6-21.4,3.8c-3.6,1.4-7.3,2.6-11,4c-4.3,1.6-7.3,3.6-10.9,6.4C164.8,50.3,165,53.6,167.6,53.4L167.6,53.4z"/>
	</g>
</g>
<g>
	<g>
		<path class="st0" d="M169.3,33.5c6.1-0.9,11.9-4,17.7-5.9c3.9-1.3,9.9-1,11.7-5.3c0.1-0.3,0-0.9-0.3-1.1
			c-3.7-3.4-10.5,0.6-14.4,2.1c-5.5,2.1-11.4,4.7-15.2,9.3C168.4,33,168.7,33.6,169.3,33.5L169.3,33.5z"/>
	</g>
</g>
<g>
	<g>
		<path class="st0" d="M177.7,10.2c-0.8,5.3,0.7,10.9,0.5,16.3c-0.2,5.8-1.4,11.8,0.9,17.3c1.3,3,6.4,4,7.2,0
			c1.2-6-0.8-11.5-2.8-17.1c-1.9-5.4-2.4-11.7-5.4-16.6C178,10,177.7,10,177.7,10.2L177.7,10.2z"/>
	</g>
</g>
<g>
	<g>
		<path class="st0" d="M202.8,12.1c-9,14.5-17.3,29.1-24.4,44.6c-3.4,7.6-7,15-10.6,22.5c-3.7,7.7-7.7,14.9-8.2,23.5
			c-0.2,4.1,6,7.1,8.7,3.6c5.1-6.6,7.1-14,9.6-21.8c2.7-8.2,5.5-16.4,8.8-24.4c6.4-15.7,12.2-31.4,18.2-47.2
			C205.4,11.8,203.5,11,202.8,12.1L202.8,12.1z"/>
	</g>
</g>
<g>
	<g>
		<path class="st0" d="M185.6,68.7c4.7-4.9,11.9-9.7,18.7-10.8c-0.6-0.8-1.2-1.5-1.7-2.3c-3.1,5.3-8.2,9.5-7.2,16.1
			c1.4,8.4,3.9,15.7,6.6,23.7c1.4,4,2.2,8.2,3.5,12.3c1.3,4.1,3.1,8,4.7,11.9c1.6,4,2.5,8.1,3.8,12.2c1.4,4.3,4.5,8.5,5.3,12.8
			c3.4-1.4,6.7-2.8,10.1-4.3c-2.8-5.4-6.9-6.1-12.4-7.2c-5.2-1-10.2-2.5-15.5-3.1c-5.9-0.7-11.6-0.5-17.5,0.1
			c-5.8,0.6-12.8,0.1-18.2,2.2c-2.4,0.9-2.7,3.7-0.7,5.2c7.3,5.5,20.1,2.4,28.4,1c5.1-0.9,10.6-2.4,15.8-1.1
			c5.5,1.3,7.2,6.4,11.3,9.7c4.6,3.6,12.3-0.9,8.7-6.7c-2-3.2-2.4-7.7-4-11.2c-1.7-3.8-3.9-7.3-5.6-11.1c-3-6.7-5.3-13.5-8.8-20
			c-3.6-6.7-6.7-13.9-9.6-20.9c-2.5-6,0.2-14.7,3.8-19.9c0.7-0.9-0.2-2.4-1.3-2.3c-9.1,0.7-15.9,2.9-22,10
			C179.6,67.5,183.2,71.2,185.6,68.7L185.6,68.7z"/>
	</g>
</g>
<g>
	<g>
		<path class="st0" d="M177.3,103.9c0,0.1,0.1,0.2,0.1,0.3c0.7,1.4,2.8,2.3,4.3,1.8c10.5-3.8,22.1-5.4,33.1-7.2
			c5.3-0.9,10.6-1.9,15.9-2.6c5.7-0.8,12.3-0.8,17-4.5c4.6-3.5,3.8-9.5-1.5-11.7c-5.3-2.1-11.4-0.5-16.8,0.7
			c-5.8,1.3-11.6,2.7-17.3,4.6c-11.2,3.7-21.5,9.1-32.4,13.4c-1.8,0.7-3.4,2.6-2.7,4.7C177.2,103.5,177.2,103.7,177.3,103.9
			L177.3,103.9z"/>
	</g>
</g>
<g>
	<g>
		<path class="st0" d="M272.4,21.9c4.5,1.6,9.9,0.7,14.6,0.6c5.8-0.1,11.6,0,17.4,0.1c5.5,0.1,11,0,16.5,0s11.4,0.3,16.6-1.6
			c3.6-1.3,4-6.6,0-7.8c-5.3-1.6-11.1-0.9-16.6-0.4s-11.1,1.1-16.6,1.9c-5.4,0.8-10.7,1.7-16.1,2.5c-5.1,0.8-11.5,0.9-16,3.6
			C271.8,21.1,271.9,21.7,272.4,21.9L272.4,21.9z"/>
	</g>
</g>
<g>
	<g>
		<path class="st0" d="M281.1,50.8c4,2.4,10.7,0.4,15.2,0c6.2-0.7,12.4-1.7,18.5-2.4c5.9-0.7,11.7-1.5,17.6-2
			c5.4-0.5,11.6-0.1,15.6-4.4c1.2-1.3,1-3.3-0.6-4.3c-4.7-3-10.2-1.4-15.3-0.4c-6.1,1.1-12.3,2.1-18.4,3.2c-5.8,1-11.7,2-17.4,3.2
			c-4.6,1-12.4,1.5-15.4,5.3C280.4,49.6,280.4,50.3,281.1,50.8L281.1,50.8z"/>
	</g>
</g>
<g>
	<g>
		<path class="st0" d="M317.1,19.1c-3.1,3.4-4.7,6.9-6.9,11c-2.3,4.2-4.9,8.2-7.4,12.4c-5.2,8.6-10.9,17-16.4,25.4
			c-5.8,8.8-11.6,17.7-17.5,26.4c-5.4,7.9-13.5,19.1-9.9,29.2c1.2,3.4,4.1,4.9,7.7,4.3c10.8-1.8,16.6-15,21-23.7
			c4.9-9.7,10-19.4,15-29c4.6-8.9,9.5-17.7,13.6-26.8c3.7-8.3,7.8-18.9,5.3-27.9C320.9,18.4,318.4,17.6,317.1,19.1L317.1,19.1z"/>
	</g>
</g>
<g>
	<g>
		<path class="st0" d="M310,51.1c-2.5,3.6-1.7,9.4-0.7,13.6c1.2,5.3,3.7,10.1,6.8,14.5c6.3,9,13.2,17.5,20.5,25.6
			c6.8,7.6,14,14.9,21.5,21.8c7.9,7.2,18.1,19.6,29.8,16.8c4.1-1,7-5.1,7-9.2c0-6.8-4.2-10.8-9.1-14.9c-4.1-3.5-8.2-7-12.1-10.7
			c-7.7-7.1-15.1-14.6-22-22.5c-6.8-7.6-12.8-15.9-19.4-23.6c-3.7-4.3-7.9-7.8-13-10.2C316.9,51,312.2,47.9,310,51.1L310,51.1z"/>
	</g>
</g>
</svg>
