<?xml version="1.0" encoding="utf-8"?>
<!-- Generator: Adobe Illustrator 16.0.0, SVG Export Plug-In . SVG Version: 6.00 Build 0)  -->
<!DOCTYPE svg PUBLIC "-//W3C//DTD SVG 1.1 Tiny//EN" "http://www.w3.org/Graphics/SVG/1.1/DTD/svg11-tiny.dtd">
<svg version="1.1" baseProfile="tiny" id="Layer_1" xmlns="http://www.w3.org/2000/svg" xmlns:xlink="http://www.w3.org/1999/xlink"
	 x="0px" y="0px" width="2000px" height="1000px" viewBox="0 0 2000 1000" xml:space="preserve">
<g id="Layer_2">
</g>
<g>
	<g>
		<rect x="1130.693" y="367.342" fill="#222222" width="61.705" height="80.047"/>
	</g>
</g>
<g>
	<g>
		<rect x="1087.896" y="368.135" fill="#222222" width="55.932" height="79.255"/>
	</g>
</g>
<g>
	<g>
		<path fill="#D8D8D7" d="M247.193,436.619c-0.623,0-0.934,0-1.553-0.312L104.53,355.186c-0.933-0.621-1.243-1.242-1.554-2.175
			L76.558,133.267c-0.311-1.553,0.623-2.797,1.865-3.108l167.217-58.12c0.311,0,0.62-0.311,0.931-0.311V50.592
			c-0.311,0-0.62,0-0.931,0.311L59.153,115.862c-1.244,0.311-2.176,1.866-1.865,3.109l29.527,245.54
			c0,0.933,0.621,1.866,1.553,2.176l157.582,90.445c0.309,0.311,0.932,0.311,1.553,0.311l0,0L247.193,436.619L247.193,436.619z"/>
		<polygon fill="#E33131" points="247.193,248.889 247.193,172.43 211.761,248.889 		"/>
		<path fill="#E33131" d="M246.259,72.038l-167.215,58.12c-1.245,0.312-2.176,1.866-1.864,3.108l26.417,219.744
			c0,0.933,0.623,1.865,1.556,2.175l141.106,81.122c0.311,0.312,0.934,0.312,1.556,0.312l0,0V280.591h-49.729l-24.865,54.392
			h-36.988l110.96-238.702l0,0V71.728C246.882,72.038,246.57,72.038,246.259,72.038z"/>
		<polygon fill="#E6E6E6" points="211.761,248.889 247.193,172.43 247.193,96.592 247.193,96.592 136.232,335.294 172.599,335.294 
			197.775,280.591 247.193,280.591 247.193,248.889 		"/>
		<path fill="#C7C7C7" d="M247.193,436.619c0.622,0,0.933,0,1.554-0.312l141.108-81.122c0.932-0.621,1.243-1.242,1.554-2.175
			l26.418-219.744c0.311-1.553-0.623-2.797-1.865-3.108l-167.836-58.12c-0.311,0-0.623-0.311-0.933-0.311V50.592
			c0.311,0,0.622,0,0.933,0.311l187.107,64.959c1.243,0.311,2.175,1.866,1.866,3.109L407.57,364.51c0,0.933-0.62,1.866-1.553,2.176
			l-157.581,90.445c-0.311,0.311-0.933,0.311-1.554,0.311l0,0L247.193,436.619L247.193,436.619z"/>
		<polygon fill="#A92120" points="247.193,248.889 247.193,172.43 282.625,248.889 		"/>
		<path fill="#A92120" d="M248.126,72.038l167.214,58.12c1.245,0.312,2.175,1.866,1.865,3.108l-26.418,219.744
			c0,0.933-0.621,1.865-1.553,2.175l-141.108,81.122c-0.311,0.312-0.933,0.312-1.556,0.312l0,0V280.591h49.731l24.864,54.392h37.297
			L247.193,96.592l0,0V72.038C247.503,72.038,247.815,72.038,248.126,72.038z"/>
		<polygon fill="#C7C7C7" points="282.625,248.889 247.193,172.43 247.193,96.592 247.193,96.592 358.462,335.294 321.787,335.294 
			296.921,280.591 247.193,280.591 247.193,248.889 		"/>
	</g>
	<g>
		<path fill="#C7C7C7" d="M353.801,148.186c-6.217,0-9.635,4.664-9.945,10.257h-16.164c1.555-13.985,11.19-24.243,26.109-24.243
			c15.851,0,25.175,8.703,25.175,22.379c0,9.324-7.148,16.783-14.919,24.865l-14.298,15.541h30.149v13.675h-51.904v-10.257
			l23.931-25.174c6.527-7.15,11.812-12.433,11.812-18.028C363.126,151.917,359.706,148.186,353.801,148.186z"/>
	</g>
</g>
<g>
	<polygon fill="#0072BA" points="1751.438,622.766 1618.105,622.766 1641.905,894.02 1751.438,924.412 1860.686,894.02 
		1884.77,622.766 	"/>
	<polygon fill="#24A8DF" points="1751.438,901.76 1751.725,902.047 1840.9,877.1 1861.544,644.271 1751.438,644.271 	"/>
	<g>
		<polygon fill="#ECEDED" points="1712.443,748.643 1715.022,780.184 1750.006,780.184 1750.006,748.643 		"/>
		<polygon fill="#ECEDED" points="1713.588,822.047 1711.869,794.521 1678.32,794.521 1682.621,847.854 1750.006,867.638 
			1750.006,833.23 		"/>
		<polygon fill="#ECEDED" points="1667.711,679.826 1670.863,711.367 1750.006,711.367 1750.006,679.826 		"/>
	</g>
	<polygon fill="#FFFFFF" points="1834.018,679.826 1750.006,679.826 1750.006,711.367 1798.75,711.367 1795.883,748.643 
		1750.006,748.643 1750.006,780.184 1792.44,780.184 1787.854,823.194 1750.006,833.23 1750.006,867.638 1818.822,848.713 	"/>
	<g>
		<polygon fill="#020202" points="1771.797,548.214 1725.633,548.214 1725.633,562.551 1725.633,562.551 1725.633,562.551 
			1747.137,584.055 1725.633,584.055 1725.633,598.105 1761.475,598.105 1764.34,598.105 1771.797,598.105 1771.797,590.364 
			1771.797,585.776 1770.076,584.055 1748.571,562.551 1771.797,562.551 		"/>
		<polygon fill="#020202" points="1830.29,548.214 1784.126,548.214 1784.126,562.551 1784.126,562.551 1784.126,562.551 
			1805.631,584.055 1784.126,584.055 1784.126,598.105 1819.68,598.105 1822.836,598.105 1830.29,598.105 1830.29,590.364 
			1830.29,585.776 1828.285,584.055 1806.777,562.551 1830.29,562.551 		"/>
		<polygon fill="#020202" points="1712.443,561.977 1712.443,547.64 1689.217,547.64 1672.299,547.64 1672.299,561.977 
			1672.299,584.342 1672.299,587.784 1672.299,598.679 1712.443,598.679 1712.443,584.342 1689.217,584.342 1689.217,561.977 		"/>
	</g>
</g>
<g>
	<polygon fill="#E7582B" points="1243.178,623.171 1108.488,623.171 1132.82,897.477 1243.178,928.179 1353.828,897.477 
		1377.87,623.171 	"/>
	<polygon fill="#F3712E" points="1243.178,905.296 1243.757,905.587 1333.843,880.385 1354.696,645.187 1243.178,645.187 	"/>
	<polygon fill="none" points="1198.861,748.592 1243.178,748.592 1243.178,714.124 1195.965,714.124 	"/>
	<g>
		<polygon fill="#EEEDED" points="1198.861,748.592 1195.965,714.124 1243.178,714.124 1243.178,680.523 1158.888,680.523 
			1168.156,782.191 1243.178,782.191 1243.178,748.592 		"/>
		<polygon fill="#EEEDED" points="1205.813,825.642 1203.207,798.704 1169.316,798.704 1174.24,851.709 1243.178,870.826 
			1243.178,836.069 		"/>
	</g>
	<g>
		<polygon fill="#FFFFFE" points="1321.098,748.592 1243.178,748.592 1243.178,782.191 1284.599,782.191 1280.544,825.642 
			1243.178,836.069 1243.178,870.826 1311.829,851.709 		"/>
		<polygon fill="#FFFFFE" points="1324.282,714.124 1326.888,680.523 1243.178,680.523 1243.178,714.124 		"/>
	</g>
	<polygon fill="#020202" points="1238.254,547.569 1223.48,547.569 1206.102,547.569 1191.33,547.569 1191.33,564.951 
		1206.102,564.951 1206.102,598.838 1223.48,598.838 1223.48,564.951 1238.254,564.951 	"/>
	<polygon fill="#020202" points="1166.708,547.569 1166.708,564.661 1151.358,564.661 1151.358,547.569 1133.979,547.569 
		1133.979,598.838 1151.358,598.838 1151.358,582.04 1166.708,582.04 1166.708,598.838 1184.089,598.838 1184.089,547.569 	"/>
	<polygon fill="#020202" points="1328.917,582.04 1328.917,547.569 1311.829,547.569 1311.829,582.04 1311.829,598.838 
		1311.829,599.129 1352.67,599.129 1352.67,582.04 	"/>
	<polygon fill="#020202" points="1286.338,547.569 1285.179,547.569 1274.462,565.527 1263.455,547.569 1262.586,547.569 
		1245.207,547.569 1245.207,598.838 1262.586,598.838 1262.586,573.931 1274.462,591.599 1286.338,573.931 1286.338,598.838 
		1303.426,598.838 1303.426,547.569 	"/>
</g>
<g>
	<path fill="#F8DC3D" d="M1059.359,451.18c0-124.432,0-248.865,0-373.642c124.43,0,248.864,0,373.641,0
		c0,124.433,0,248.865,0,373.642C1308.567,451.18,1184.134,451.18,1059.359,451.18z"/>
	<path fill="#222222" d="M1281.338,385.689c9.65-5.515,18.955-11.03,28.609-16.545c1.031,1.378,1.721,2.413,2.411,3.446
		c5.169,7.239,11.375,13.444,20.338,15.856c8.271,2.413,16.2,2.758,24.472-0.345c5.17-2.068,8.96-5.17,10.686-10.685
		c2.068-6.55,0-13.444-5.859-17.235c-4.481-3.103-9.307-5.515-14.133-7.928c-7.928-3.792-16.199-7.239-24.473-11.03
		c-8.271-4.137-15.511-9.307-21.371-16.545c-7.584-9.307-9.994-19.992-9.994-31.712c0.345-21.37,13.785-38.604,34.813-43.774
		c15.511-3.792,30.676-3.102,45.151,4.135c9.308,4.826,15.855,12.41,21.373,21.716c-8.965,5.859-18.269,11.719-27.233,17.579
		c-1.375-1.722-2.41-3.79-3.444-5.17c-5.86-7.927-13.787-11.029-23.44-9.307c-5.859,1.034-10.341,4.481-11.72,10.687
		c-1.377,6.548-0.345,12.408,5.171,16.2c4.138,3.103,8.964,5.516,13.788,7.583c8.961,4.48,18.271,8.272,27.574,12.752
		c8.275,4.137,15.855,9.997,21.371,17.58c5.171,6.894,7.584,14.822,8.274,23.439c0.689,9.65,0,18.958-4.483,27.575
		c-5.857,11.719-15.166,18.957-27.23,23.094c-11.375,4.136-23.437,4.825-35.156,3.791c-10.686-1.034-21.029-3.791-30.679-9.65
		c-9.995-5.86-17.925-14.132-23.439-24.474C1282.027,386.723,1281.682,386.378,1281.338,385.689z"/>
	<path fill="#222222" d="M1227.223,249.193c11.717,0,23.436,0,34.811,0c0,0.688,0,1.033,0,1.723c0,38.605,0,77.555,0,116.159
		c0,8.618-0.689,17.235-3.79,25.507c-5.17,13.443-14.821,22.405-28.954,26.197c-15.166,4.136-29.988,3.792-44.811-2.068
		c-12.753-5.17-21.368-14.822-27.574-27.231c9.65-5.858,18.958-11.375,28.609-17.233c1.724,2.758,3.447,5.516,5.171,7.928
		c3.445,4.825,7.584,8.617,13.788,9.65c3.791,0.69,7.927,0.346,11.716-0.688c6.551-2.069,8.965-6.894,10-13.099
		c0.344-3.103,0.69-5.86,0.69-8.962c0-38.259,0-76.174,0-114.436C1227.223,251.606,1227.223,250.571,1227.223,249.193z"/>
</g>
<g>
	<path fill="#333333" d="M610.683,694.817c0-1.894-0.811-3.245-2.433-4.327l-40.572-23.261c-0.541-0.271-1.351-0.542-2.164-0.542
		c0,0-0.271,0-0.541,0c-0.811,0-1.623,0.271-2.164,0.542l-40.57,23.261c-1.623,0.812-2.435,2.434-2.435,4.327v62.752
		c0,0.808,0.542,1.621,1.353,2.161c0.811,0.542,1.623,0.542,2.434,0l24.072-13.794c1.623-0.812,2.435-2.433,2.435-4.328v-29.209
		c0-1.896,0.813-3.246,2.435-4.328l10.277-5.952c0.812-0.541,1.624-0.541,2.434-0.541c0.813,0,1.624,0.271,2.435,0.541l10.278,5.952
		c1.623,0.813,2.434,2.433,2.434,4.328v29.209c0,1.896,1.083,3.247,2.435,4.328l24.071,13.794c0.812,0.542,1.624,0.542,2.436,0
		c0.812-0.54,1.351-1.354,1.351-2.161V694.817z"/>
	<path fill="#333333" d="M827.065,608.536c-0.812-0.542-1.624-0.542-2.436,0s-1.082,1.352-1.082,2.163v62.211
		c0,0.54-0.271,1.081-0.811,1.353c-0.541,0.27-1.083,0.27-1.624,0l-10.007-5.953c-1.623-0.812-3.246-0.812-4.869,0l-40.571,23.263
		c-1.623,0.813-2.435,2.433-2.435,4.328v46.79c0,1.894,0.812,3.246,2.435,4.33l40.571,23.261c1.623,0.812,3.247,0.812,4.869,0
		l40.571-23.261c1.624-0.813,2.435-2.437,2.435-4.33V626.118c0-1.895-1.082-3.518-2.435-4.327L827.065,608.536z M823.277,727.547
		c0,0.539-0.27,0.809-0.54,1.08l-13.795,8.111c-0.27,0.272-0.812,0.272-1.353,0l-13.794-8.111c-0.271-0.271-0.541-0.541-0.541-1.08
		v-16.23c0-0.542,0.271-0.813,0.541-1.082l13.794-8.115c0.271-0.27,0.811-0.27,1.353,0l13.795,8.115c0.27,0.27,0.54,0.54,0.54,1.082
		V727.547z"/>
	<path fill="#333333" d="M972.038,711.046c1.625-0.812,2.436-2.434,2.436-4.327v-11.359c0-1.625-0.813-3.245-2.436-4.327
		l-40.299-23.264c-1.625-0.811-3.247-0.811-4.869,0l-40.573,23.264c-1.622,0.811-2.433,2.433-2.433,4.327v46.791
		c0,1.894,1.081,3.246,2.433,4.326l40.302,22.991c1.352,0.813,3.247,0.813,4.869,0l24.342-13.524
		c0.811-0.539,1.353-1.352,1.353-2.163c0-0.809-0.542-1.622-1.353-2.162l-40.842-23.263c-0.81-0.541-1.353-1.352-1.353-2.161
		v-14.878c0-0.813,0.542-1.623,1.353-2.163l12.713-7.304c0.811-0.542,1.622-0.542,2.433,0l12.714,7.304
		c0.811,0.54,1.352,1.351,1.352,2.163v11.631c0,0.81,0.541,1.622,1.352,2.162c0.813,0.543,1.624,0.543,2.435,0L972.038,711.046z"/>
	<path fill="#80BD01" d="M684.253,667.498c1.623-0.811,3.246-0.811,4.869,0l40.571,23.262c1.624,0.813,2.435,2.434,2.435,4.327
		v46.794c0,1.894-0.812,3.244-2.435,4.327l-40.571,23.26c-1.623,0.813-3.246,0.813-4.869,0l-40.572-23.26
		c-1.623-0.812-2.434-2.434-2.434-4.327v-46.794c0-1.894,0.811-3.244,2.434-4.327L684.253,667.498z"/>
	<path fill="#80BD01" d="M928.492,708.884c0.27-0.271,0.541-0.271,1.082,0l7.844,4.596c0.27,0.272,0.542,0.543,0.542,0.813v8.926
		c0,0.268-0.271,0.538-0.542,0.81l-7.844,4.599c-0.271,0.269-0.541,0.269-1.082,0l-7.844-4.599c-0.271-0.271-0.542-0.542-0.542-0.81
		v-9.196c0-0.271,0.271-0.543,0.542-0.812L928.492,708.884z"/>
	<g>
		<path fill="#80BD01" d="M747.818,879.119c-1.351,0-2.703-0.271-4.057-1.082l-12.712-7.574c-1.893-1.08-1.081-1.353-0.271-1.623
			c2.434-0.812,2.976-1.081,5.681-2.703c0.27-0.27,0.54,0,1.082,0l9.738,5.68c0.271,0.27,0.81,0.27,1.081,0l38.137-22.179
			c0.271-0.271,0.542-0.541,0.542-1.081v-44.089c0-0.541-0.271-0.813-0.542-1.082l-38.137-21.908c-0.271-0.271-0.81-0.271-1.081,0
			l-38.137,22.178c-0.271,0.271-0.542,0.542-0.542,1.083v44.088c0,0.541,0.271,0.812,0.542,1.08l10.547,5.951
			c5.681,2.975,9.197-0.541,9.197-3.785v-43.547c0-0.541,0.541-1.083,1.082-1.083h4.868c0.542,0,1.083,0.542,1.083,1.083v43.547
			c0,7.572-4.058,11.9-11.361,11.9c-2.164,0-4.056,0-8.926-2.436l-10.006-5.68c-2.434-1.353-4.059-4.058-4.059-7.031v-44.088
			c0-2.977,1.625-5.41,4.059-7.034l38.136-22.178c2.435-1.351,5.681-1.351,8.114,0l38.138,22.178
			c2.434,1.354,4.057,4.058,4.057,7.034v44.088c0,2.974-1.623,5.408-4.057,7.031l-38.138,22.18
			C750.793,878.578,749.171,879.119,747.818,879.119z"/>
		<path fill="#80BD01" d="M759.72,848.826c-16.77,0-20.286-7.575-20.286-14.064c0-0.542,0.541-1.082,1.083-1.082h4.868
			c0.541,0,1.083,0.269,1.083,1.082c0.812,5.138,2.975,7.572,12.982,7.572c8.114,0,11.36-1.892,11.36-6.22
			c0-2.435-1.083-4.327-13.524-5.409c-10.548-1.083-16.769-3.246-16.769-11.633c0-7.844,6.491-12.172,17.311-12.172
			c12.17,0,18.391,4.328,18.934,13.254c0,0.271,0,0.541-0.271,0.813c-0.272,0.271-0.542,0.271-0.812,0.271h-4.868
			c-0.542,0-1.083-0.271-1.083-0.813c-1.082-5.41-4.058-7.031-11.9-7.031c-8.655,0-9.738,2.975-9.738,5.411
			c0,2.703,1.083,3.515,12.983,5.136c11.631,1.624,17.311,3.787,17.311,11.901C778.653,843.957,771.89,848.826,759.72,848.826z"/>
		<g>
			<path fill="#80BD01" d="M820.577,787.699c0,4.056-3.246,7.302-7.304,7.302s-7.302-3.246-7.302-7.302
				c0-4.058,3.516-7.306,7.302-7.306C817.061,780.394,820.577,783.642,820.577,787.699z M807.052,787.699
				c0,3.517,2.705,6.219,6.221,6.219c3.517,0,6.222-2.702,6.222-6.219c0-3.52-2.706-6.222-6.222-6.222
				C809.757,781.749,807.052,784.451,807.052,787.699z M810.569,783.642h2.975c1.083,0,2.976,0,2.976,2.164
				c0,1.623-1.082,1.894-1.622,2.163c1.081,0,1.081,0.81,1.351,1.892c0,0.542,0.271,1.895,0.542,2.166h-1.893
				c0-0.271-0.271-2.434-0.271-2.706c0-0.542-0.271-0.813-0.812-0.813h-1.353v3.247h-1.622L810.569,783.642L810.569,783.642z
				 M811.922,787.158h1.352c1.082,0,1.353-0.813,1.353-1.083c0-1.083-0.812-1.083-1.083-1.083h-1.353L811.922,787.158
				L811.922,787.158z"/>
		</g>
	</g>
</g>
<g>
	<path fill="#53C7EA" d="M622.558,200.429c-0.615-3.394-1.541-6.478-2.159-9.871c-1.542-7.404-2.777-14.499-3.394-21.903
		c-0.926-8.022-1.234-15.734-0.926-23.754c0.618-10.797,2.16-21.594,6.787-31.466c3.395-7.095,8.021-12.957,14.808-16.966
		c4.32-2.468,9.256-4.012,14.5-4.32c9.871-0.924,19.126,1.543,28.38,4.937c12.648,4.936,24.371,12.032,35.168,20.051
		c7.095,5.245,13.574,10.797,19.744,16.659c0.309,0.309,0.617,0.616,0.925,0.924c2.159-1.851,4.319-4.009,6.478-5.859
		c11.723-10.798,24.371-20.053,38.563-27.456c7.404-3.703,14.807-6.788,22.827-8.638c7.096-1.542,13.883-1.851,20.978-0.309
		c8.331,2.159,14.808,6.786,19.744,14.191c4.627,6.787,7.095,14.499,8.947,22.212c1.851,8.945,2.468,18.199,2.159,27.455
		c-0.309,14.499-2.776,28.998-5.862,43.188c0,0.309,0,0.618-0.309,0.926c3.085,0.926,6.17,1.851,9.254,2.777
		c15.734,5.244,30.85,11.722,44.731,21.285c8.022,5.553,15.116,11.724,20.669,19.743c3.701,5.245,6.479,11.105,7.096,17.583
		c0.926,6.479-0.617,12.648-3.395,18.511c-3.085,6.786-8.021,12.648-13.265,17.584c-8.329,7.712-17.893,13.881-28.073,19.126
		c-11.414,5.861-23.135,10.18-35.476,13.882c-0.309,0-0.618,0.309-0.926,0.309c0.617,2.467,0.926,4.626,1.542,7.095
		c1.543,7.095,2.777,14.499,3.394,21.903c0.927,8.329,1.235,16.966,0.927,25.296c-0.617,11.414-2.468,22.52-7.404,32.7
		c-3.394,7.095-8.021,12.957-14.807,16.966c-5.862,3.702-12.648,4.937-19.436,4.627c-7.711,0-14.807-1.85-21.903-4.627
		c-11.722-4.317-22.52-10.797-32.391-18.201c-8.021-5.86-15.425-12.339-22.52-19.126c-0.309-0.308-0.617-0.617-0.924-0.926
		c-0.618,0.618-1.543,1.235-2.161,2.16c-11.413,10.488-23.444,20.051-37.019,27.763c-8.637,4.936-17.584,8.639-27.147,11.107
		c-5.861,1.542-11.722,2.159-17.893,1.542c-11.722-0.926-20.667-6.478-26.838-16.349c-4.01-6.479-6.478-13.883-8.021-21.287
		c-1.851-9.254-2.159-18.509-1.851-28.073c0.618-13.882,3.086-27.763,6.17-41.337c0,0,0-0.309,0-0.617
		c-2.16-0.616-4.011-1.233-5.861-1.851c-13.575-4.319-26.838-9.872-39.179-17.276c-9.255-5.553-17.583-11.722-24.678-19.743
		c-5.245-5.862-9.256-12.34-11.415-20.052c-2.16-8.638-0.618-16.966,3.394-24.679c3.393-6.786,8.328-12.031,14.19-16.967
		c9.563-8.33,20.36-14.5,32.082-19.744c10.181-4.628,20.669-8.329,31.159-11.414C621.943,200.738,622.25,200.738,622.558,200.429z
		 M735.467,329.378v-0.309c4.318,0,8.637,0,12.957,0c7.711-0.308,15.116-0.616,22.828-0.924c0.925,0,1.233-0.618,1.542-1.235
		c12.648-19.126,24.37-39.177,34.551-59.847c0.308-0.925,0.308-1.542,0-2.159c-10.181-20.669-21.594-40.412-34.551-59.538
		c-0.617-0.617-0.925-1.235-1.85-1.235c-0.927,0-2.16,0-3.085-0.307c-7.712-0.309-15.734-0.925-23.446-0.925
		c-14.19-0.309-28.38,0-42.878,1.232c-0.309,0-0.926,0.31-1.234,0.618c-12.957,19.127-24.68,39.179-34.86,60.155
		c-0.308,0.618-0.308,1.234,0,1.851c6.171,12.648,12.648,24.988,20.053,37.021c4.626,7.712,9.872,15.423,14.808,23.135
		c0.308,0.309,0.617,0.926,1.234,0.926c2.159,0.31,4.627,0.31,6.786,0.31C716.957,328.762,726.212,329.069,735.467,329.378z
		 M626.878,216.779c-0.308,0-0.616,0-0.925,0.309c-9.873,2.776-19.435,6.17-28.689,10.488c-9.873,4.627-19.437,9.872-27.765,17.276
		c-4.011,3.702-7.712,7.403-10.489,12.339c-3.085,5.554-3.394,11.416-0.308,17.275c1.542,3.086,3.701,5.863,5.861,8.64
		c6.169,6.786,13.264,12.03,20.977,16.657c12.339,7.404,25.296,12.649,39.178,16.66c0.617,0.307,1.235,0.307,1.852,0.616
		c0-0.309,0.308-0.616,0.308-0.616c5.245-16.66,11.414-33.009,18.818-48.743c0.309-0.617,0.309-0.926,0-1.542
		c-5.553-11.723-10.489-23.754-14.499-36.093C629.654,225.109,628.42,221.099,626.878,216.779z M638.601,336.474
		c0,0.309-0.309,0.309-0.309,0.309c-3.085,12.339-5.245,24.987-5.861,37.635c-0.308,8.33,0,16.66,1.543,24.68
		c0.924,5.244,2.776,10.488,5.552,15.115c3.085,4.936,7.095,8.021,12.956,8.638c4.629,0.618,9.256,0,13.883-0.926
		c10.18-2.467,19.434-7.095,28.38-12.648c10.489-6.478,19.745-14.19,28.69-22.52c0.308-0.309,0.926-0.924,1.233-1.233
		c0-0.309-0.307-0.309-0.307-0.309c-11.724-12.648-22.52-25.914-32.391-40.104c-0.618-0.925-1.543-1.234-2.468-1.234
		c-1.852,0-3.703-0.307-5.862-0.616c-5.553-0.617-11.415-1.235-16.967-2.159c-7.094-0.926-14.191-2.16-21.286-3.394
		C643.228,337.708,641.069,337.09,638.601,336.474z M748.423,385.833c0.308,0.308,0.617,0.308,0.926,0.615
		c7.095,6.788,14.498,13.265,22.52,18.818c7.711,5.245,15.424,10.181,24.062,13.882c6.169,2.468,12.34,4.32,19.126,4.627
		c4.318,0,8.638-0.616,12.34-3.701c3.394-2.776,5.552-6.479,7.403-10.489c3.394-7.712,4.628-15.733,4.937-24.062
		c0.617-8.021,0-16.042-0.618-24.063c-0.925-8.328-2.466-16.658-4.319-24.679c-0.308-0.615-0.308-0.926-1.232-0.615
		c-5.862,1.232-11.723,2.467-17.276,3.392c-5.553,0.926-11.106,1.852-16.66,2.467c-5.551,0.618-11.104,1.235-16.657,1.851
		c-0.926,0-1.542,0.31-2.159,1.234c-7.713,11.106-15.734,21.903-24.68,32.083C753.359,379.971,750.891,382.748,748.423,385.833z
		 M724.361,146.753c-0.309-0.309-0.618-0.617-0.926-0.617c-3.394-3.085-6.787-6.17-10.18-8.947
		c-9.872-8.021-20.053-15.423-31.466-20.976c-7.712-3.702-15.424-6.479-24.063-7.095c-4.627-0.309-9.254,0.308-13.264,3.083
		c-3.085,2.16-4.936,5.245-6.479,8.639c-3.701,7.712-4.626,16.349-5.244,24.679c-0.309,8.637,0,16.967,1.234,25.605
		c0.924,8.329,2.776,16.35,4.627,24.371c0.309,0.617,0.618,0.617,1.233,0.617c4.32-0.926,8.639-1.852,12.648-2.468
		c7.095-1.234,14.5-2.467,21.595-3.394c5.244-0.618,10.487-1.234,15.732-1.851c0.926,0,1.543-0.309,2.161-1.235
		c8.329-11.722,17.275-23.135,26.837-33.934C720.659,151.38,722.51,149.22,724.361,146.753z M747.806,147.06
		c0.309,0.309,0.618,0.617,0.926,0.926c4.936,5.861,10.18,11.414,15.116,17.584c5.861,7.095,11.105,14.808,16.659,22.21
		c0.309,0.309,0.617,0.618,1.234,0.927c7.096,0.924,13.882,1.542,20.977,2.468c7.404,1.233,15.116,2.467,22.52,4.01
		c2.777,0.617,5.554,1.235,8.331,1.85c0-0.308,0.309-0.615,0.309-0.615c2.776-11.415,4.627-22.829,5.243-34.553
		c0.618-9.255,0.309-18.2-1.233-27.456c-0.925-5.551-2.776-11.104-5.553-16.041c-2.467-4.011-5.551-7.404-10.18-8.638
		c-4.627-1.233-9.254-0.925-13.881,0c-8.021,1.542-15.425,4.935-22.52,8.946c-11.414,6.169-21.594,14.19-31.159,22.829
		C752.124,143.051,749.965,144.901,747.806,147.06z M845.906,315.497c0.309,0,0.618,0,0.618-0.309
		c12.339-3.701,24.062-8.33,35.476-14.499c7.712-4.011,14.807-8.947,21.285-14.807c4.013-3.702,7.714-8.021,9.871-12.957
		c1.544-3.085,2.162-6.478,1.544-10.18c-0.926-4.628-3.393-8.639-6.479-12.031c-5.86-6.787-13.265-12.031-20.977-16.659
		c-12.032-7.095-24.68-12.031-37.944-16.041c-1.234-0.309-2.468-0.617-4.011-1.235c0,0.309-0.309,0.618-0.309,0.618
		c-4.936,16.042-11.413,31.774-18.509,47.199c-0.309,0.618-0.309,1.235,0,1.852c5.553,11.414,10.489,23.137,14.808,35.167
		C842.82,306.242,844.363,310.87,845.906,315.497z M829.555,319.815c-1.233-5.245-11.414-32.083-13.264-34.242
		c-7.095,13.882-14.807,27.147-23.138,40.412C805.494,324.442,817.524,322.282,829.555,319.815z M679.013,326.295
		c-8.33-13.267-16.042-26.532-23.446-40.413c-4.936,11.414-8.946,22.828-12.648,34.55C654.95,322.9,666.982,324.751,679.013,326.295
		z M736.701,373.801c8.02-8.946,15.732-18.508,22.828-28.072c-15.424,0-30.848,0-46.272,0
		C720.659,355.292,728.371,364.855,736.701,373.801z M758.912,186.548c-1.852-3.394-19.434-24.372-22.828-27.458
		c-8.021,8.639-15.733,17.893-23.137,27.458C728.371,186.548,743.796,186.548,758.912,186.548z M816.6,246.087
		c4.627-10.798,8.946-21.904,12.34-33.318c-11.724-2.776-23.446-4.627-35.168-6.169C801.175,219.864,808.887,232.821,816.6,246.087z
		 M643.228,212.461c3.703,11.415,7.712,22.52,12.339,33.935c7.095-13.883,14.807-26.84,23.137-40.104
		C666.673,207.833,654.95,209.993,643.228,212.461z"/>
	<path fill="#53C7EA" d="M770.943,265.83c0,19.434-15.734,35.168-35.168,34.859c-19.126,0-34.859-15.733-34.859-34.859
		c0-19.435,15.733-34.86,35.167-34.86S770.943,246.396,770.943,265.83z"/>
</g>
<path fill="#3B9CB2" d="M1914.595,381.931c-1.336-5.345-2.339-13.696-2.674-24.72l-1.337-38.751
	c-0.665-16.703-3.674-29.062-9.687-36.412c-5.679-7.35-14.363-13.363-25.388-18.039c13.029-6.681,23.051-15.701,30.064-26.725
	c7.35-11.024,10.688-25.389,10.688-42.424c0-33.072-13.359-56.121-40.084-68.481c-14.031-6.347-32.069-9.687-53.782-9.687h-73.16
	l0,0c-5.679-5.345-11.691-10.023-17.368-14.699c-13.363-10.021-25.39-17.037-37.751-21.714c-12.023-4.676-22.046-6.348-32.069-5.345
	c-6.344,0.669-12.357,2.339-17.368,5.345c-7.685,4.344-13.364,11.024-17.706,20.044c-4.676,9.687-7.016,20.711-7.684,35.076
	c-0.335,8.018,0,16.034,1.003,25.387c0.668,7.683,2.005,15.367,3.676,23.384c0.331,1.336,0.665,3.007,1,4.342
	c-10.354,3.007-19.373,6.682-28.062,10.69c-14.362,6.348-25.386,13.362-34.739,21.379c-7.018,6.348-12.36,12.694-16.034,19.375
	c-5.346,10.021-6.683,20.044-4.009,30.065c2.003,8.018,6.345,15.701,13.025,23.383c7.018,8.017,15.701,14.699,27.061,21.714
	c12.359,7.35,25.721,13.362,41.755,18.373c0.334,0,0.334,0,0.668,0.334c-3.004,14.031-5.01,26.391-5.344,38.417
	c-0.335,11.358,0.334,21.379,2.005,30.399c1.672,9.352,4.677,17.369,9.019,24.051c7.685,12.025,18.375,18.707,32.403,20.044
	c6.348,0.667,13.028,0,20.711-1.671c9.69-2.338,19.377-6.348,29.731-12.025c29.065-16.036,55.788-46.1,55.788-49.44
	c0-3.341,0-101.553,0-101.553h48.104c15.7,0,27.059,1.671,34.407,5.344c12.694,6.347,19.71,19.041,20.378,38.083l2.337,48.105
	c0.669,11.356,1.004,19.041,2.006,23.049c1.003,4.009,1.668,7.015,3.005,9.687h48.104v-6.346
	C1921.273,396.963,1916.932,391.284,1914.595,381.931z M1729.529,336.833l-16.035-22.048c-3.674-5.679-7.685-11.69-11.358-17.704
	c-6.682-11.024-13.362-23.05-19.708-36.078c10.021-20.043,22.046-40.421,33.402-57.79c4.012-6.014,8.688-12.695,13.365-19.042
	v152.662H1729.529z M1649.022,136.734c0.334-6.68,1.337-15.365,4.677-23.383c1.336-3.34,3.007-5.345,4.676-6.682
	c2.005-1.335,4.342-2.003,7.685-2.003c0.669,0,1.336,0,1.667,0c6.683,0.334,13.699,2.338,22.383,6.682
	c10.355,5.01,20.379,11.691,31.404,20.71c2.336,2.004,4.341,3.675,6.679,5.679c-0.669,0.668-1.337,1.336-1.668,2.004
	c-9.356,10.355-18.376,21.714-27.393,34.407c-5.011,0.334-10.021,1.003-15.035,1.671c-7.349,1.001-14.698,2.338-22.38,3.674
	c-2.673,0.334-5.678,1.003-8.353,1.672c-1.671-6.683-2.671-13.028-3.339-19.376C1649.022,152.769,1648.354,144.418,1649.022,136.734
	z M1667.062,296.079c3.674,6.348,7.348,12.695,11.021,19.041c-5.68-1.001-11.354-1.67-16.702-3.007
	C1663.051,307.103,1665.056,301.757,1667.062,296.079z M1661.714,210.227c5.348-1.003,10.692-2.004,16.037-3.007
	c-3.676,6.013-7.016,12.026-10.689,18.373C1665.056,220.582,1663.386,215.572,1661.714,210.227z M1632.319,305.099
	c-13.364-4.343-24.721-9.354-35.077-15.366c-8.686-5.011-15.031-10.023-20.042-16.035c-2.003-2.34-3.674-5.012-5.346-7.685
	c-2.001-4.008-2.001-7.683,0.335-12.025c2.005-3.675,5.011-7.349,9.352-11.024c7.016-6.014,15.701-11.358,27.394-16.703
	c7.016-3.341,15.034-6.347,23.719-9.02c0.669,2.339,1.671,5.012,2.337,7.35c4.01,11.691,9.021,24.052,14.7,36.076
	C1642.674,276.37,1636.995,290.734,1632.319,305.099z M1703.808,403.978c-10.021,6.347-19.043,10.356-27.728,12.36
	c-3.008,0.667-6.014,1.001-8.688,1.001l0,0c-0.999,0-2.337,0-3.339-0.334c-3.674-0.333-6.348-2.338-8.685-6.012
	c-2.339-3.675-3.676-8.017-5.01-13.696c-1.337-7.016-2.006-15.033-1.671-24.052c0.334-10.022,2.005-20.378,4.342-32.404
	c0.669,0,1.003,0.334,1.671,0.334l3.339,0.667c6.014,1.003,12.361,2.005,18.708,3.006c4.678,0.669,9.354,1.003,13.695,1.671
	l4.009,0.333c1.671,0.334,3.342,0.334,5.013,0.334c9.354,13.029,19.373,25.389,29.396,36.747
	C1720.844,391.952,1712.492,398.3,1703.808,403.978z M1860.813,238.288c-10.355,7.349-24.722,11.024-42.424,11.024h-49.774v-98.88
	h54.45c13.026,0,23.383,2.003,31.066,6.013c14.697,7.35,21.713,21.38,21.713,42.09
	C1876.179,217.575,1871.168,230.938,1860.813,238.288z"/>
<g>
	<path fill="#FFFFFF" d="M247.563,930.606l-10.79-3.686c0,0,1.318-54.991-18.418-58.94c-13.156-15.263,2.105-647.319,49.469-2.109
		c0,0-16.313,8.16-19.208,22.106C245.458,901.663,247.563,930.606,247.563,930.606L247.563,930.606L247.563,930.606z"/>
	<path fill="#A6A385" d="M247.563,930.606l-10.79-3.686c0,0,1.318-54.991-18.418-58.94c-13.156-15.263,2.105-647.319,49.469-2.109
		c0,0-16.313,8.16-19.208,22.106C245.458,901.663,247.563,930.606,247.563,930.606L247.563,930.606L247.563,930.606z"/>
	<path fill="#FFFFFF" d="M253.351,877.452c0,0,94.466-62.102,72.363-191.305c-21.313-93.939-71.574-124.723-77.099-136.566
		c-6.05-8.415-11.842-23.154-11.842-23.154l3.95,261.292C240.723,787.982,232.563,867.72,253.351,877.452"/>
	<path fill="#499D4A" d="M253.351,877.452c0,0,94.466-62.102,72.363-191.305c-21.313-93.939-71.574-124.723-77.099-136.566
		c-6.05-8.415-11.842-23.154-11.842-23.154l3.95,261.292C240.723,787.982,232.563,867.72,253.351,877.452"/>
	<path fill="#FFFFFF" d="M231.248,880.871c0,0-88.677-60.519-83.412-167.093c4.997-106.569,67.625-158.935,79.729-168.403
		c7.894-8.424,8.157-11.584,8.683-20c5.525,11.84,4.476,177.091,5.263,196.563C243.877,796.935,237.299,866.663,231.248,880.871
		L231.248,880.871L231.248,880.871z"/>
	<path fill="#58AA50" d="M231.248,880.871c0,0-88.677-60.519-83.412-167.093c4.997-106.569,67.625-158.935,79.729-168.403
		c7.894-8.424,8.157-11.584,8.683-20c5.525,11.84,4.476,177.091,5.263,196.563C243.877,796.935,237.299,866.663,231.248,880.871
		L231.248,880.871L231.248,880.871z"/>
</g>
</svg>
